<?xml version="1.0" encoding="utf-8"?>
<!-- Generator: Adobe Illustrator 19.0.0, SVG Export Plug-In . SVG Version: 6.00 Build 0)  -->
<svg version="1.1" baseProfile="tiny" id="Layer_1" xmlns="http://www.w3.org/2000/svg" xmlns:xlink="http://www.w3.org/1999/xlink"
	 x="0px" y="0px" viewBox="0 0 25 25" xml:space="preserve">
<g>
	<path d="M13.4,25c-4.1,0-8.1,0-12.2,0c0,0-0.1,0-0.1,0c-0.4-0.1-0.7-0.3-0.9-0.6C0.1,24.2,0.1,24,0,23.8C0,16.3,0,8.7,0,1.2
		c0,0,0-0.1,0-0.1c0.1-0.4,0.3-0.7,0.6-0.9C0.8,0.1,1,0.1,1.2,0c7.6,0,15.1,0,22.7,0c0,0,0.1,0,0.1,0c0.4,0.1,0.7,0.3,0.9,0.6
		C24.9,0.8,24.9,1,25,1.2c0,7.6,0,15.1,0,22.7c0,0,0,0.1,0,0.1c-0.1,0.4-0.3,0.7-0.6,0.9c-0.2,0.1-0.4,0.2-0.6,0.2
		c-2.2,0-4.4,0-6.6,0c0-3.2,0-6.4,0-9.7c1.1,0,2.2,0,3.3,0c0.2-1.3,0.3-2.5,0.5-3.8c-1.3,0-2.5,0-3.7,0c0,0,0-0.1,0-0.1
		c0-0.8,0-1.5,0-2.3c0-0.2,0-0.4,0-0.7c0.1-0.6,0.4-1,1-1.1c0.2-0.1,0.5-0.1,0.7-0.1c0.7,0,1.3,0,2,0c0,0,0.1,0,0.1,0
		c0-1.1,0-2.3,0-3.4c-0.1,0-0.2,0-0.3,0c-0.6,0-1.3-0.1-1.9-0.1c-0.7,0-1.4,0-2,0.1c-1.1,0.2-2,0.8-2.7,1.7
		c-0.6,0.8-0.8,1.8-0.9,2.8c0,1,0,2,0,3c0,0,0,0.1,0,0.2c-1.1,0-2.2,0-3.2,0c0,1.3,0,2.5,0,3.8c1.1,0,2.2,0,3.2,0
		C13.4,18.6,13.4,21.8,13.4,25z"/>
</g>
</svg>
