<?xml version="1.0" encoding="utf-8"?>
<!-- Generator: Adobe Illustrator 16.0.0, SVG Export Plug-In . SVG Version: 6.00 Build 0)  -->
<!DOCTYPE svg PUBLIC "-//W3C//DTD SVG 1.1 Tiny//EN" "http://www.w3.org/Graphics/SVG/1.1/DTD/svg11-tiny.dtd">
<svg version="1.1" baseProfile="tiny" id="Layer_1" xmlns="http://www.w3.org/2000/svg" xmlns:xlink="http://www.w3.org/1999/xlink"
	 x="0px" y="0px" viewBox="0 0 797.509 1080.942" xml:space="preserve">
<g>
	<g>
		<path d="M428.706,223.697c-0.434-6.286-0.912-12.077-1.434-17.398c-10.381,3.906-21.904,6.102-34.062,6.102
			c-12.028,0-23.44-2.15-33.737-5.979c-1.065,12.121-1.966,26.658-2.669,44.041C386.855,236.856,409.27,228.503,428.706,223.697z"/>
		<path d="M359.778,603.325c1.484-0.593,2.893-1.174,4.19-1.742l0.233-0.102l0.242-0.091c11.524-4.333,22.837-8.308,33.778-12.153
			c8.648-3.038,17.107-6.01,25.24-9.013c6.484-133.435,8.508-226.297,7.648-290.686c-9.186,2.832-20.711,6.962-37.535,13.135
			c-11.259,4.334-24.614,10.26-38.339,19.791c-0.504,64.977,0.704,153.568,4.339,274.129
			C359.643,598.843,359.711,601.083,359.778,603.325z"/>
		<g>
			<path d="M404.034,810.607c2.838-0.515,5.668-1.028,8.48-1.55c0.262-0.048,0.516-0.097,0.773-0.144
				c2.133-50.24,4.381-106.699,7.174-166.825c-9.27,3.19-18.666,6.491-27.752,10.006c-9.583,3.646-20.686,8.047-30.745,13.194
				c-0.092,0.046-0.178,0.092-0.269,0.139c1.745,55.039,3.536,106.611,5.521,152.651
				C379.671,815.064,391.993,812.797,404.034,810.607z"/>
			<path d="M399.262,856.403c-10.363,1.523-20.799,3.229-30.007,5.442c5.149,101.812,11.728,167.34,21.858,167.34
				c10.364,0,15.329-68.614,20.167-174.483C407.196,855.251,403.223,855.8,399.262,856.403z"/>
		</g>
	</g>
	<circle cx="393.213" cy="126.097" r="63.798"/>
	<g>
		<path d="M457.239,985.793c2.072-3.122-27.342-17.644-67.642-45.646c-18.983-13.875-44.172-32.591-52.909-54.717
			c-3.366-11.906-1.328-17.019,11.066-22.988c12.619-5.762,31.134-9.055,49.93-11.817c19.148-2.913,39.121-4.697,61.42-9.738
			c10.863-3.413,24.17-4.388,37.977-19.769c6.59-8.159,6.963-19.825,3.119-27.581c-3.637-7.817-8.934-13.008-13.621-16.898
			c-19.291-15.186-37.598-22.567-55.354-31.346c-17.662-8.311-34.703-16.077-49.937-24.235
			c-15.229-8.046-28.801-16.762-37.221-25.29c-8.602-8.266-9.529-16.164-7.651-19.022c1.727-4.149,10.701-11.192,20.973-16.278
			c10.335-5.289,21.464-9.726,31.634-13.592c38.28-14.811,78.524-24.683,116.798-46.802c9.486-5.892,19.195-12.998,26.947-23.302
			c7.816-10.354,12.115-23.807,9.572-37.115c-6.701-27.065-27.084-39.196-41.721-49.349c-31.605-19.591-61.201-31.448-87.756-44.091
			c-26.495-12.274-50.24-24.032-68.712-36.339c-18.503-12.239-29.854-25.321-31.241-34.616c-1.75-9.465,0.446-24.566,9.864-33.498
			c21.151-23.155,44.298-35.53,67.177-44.335c47.637-17.474,54.771-19.183,83.621-20.567c24.287,0,58.869-6.516,55.643-19.752
			c-2.795-10.96-47.955-32.246-77.367-29.206c-29.26,3.745-62.244,15.799-122.2,44.824c-14.847,7.647-30.735,16.72-46.319,29.99
			c-15.105,13.04-31.75,31.938-35.065,57.791c-4.024,25.839,11.951,52.639,31.541,68.928c19.729,16.931,42.388,29.001,65.872,40.123
			c23.537,11.133,48.335,21.056,73.238,31.778c24.123,10.522,51.539,22.593,66.088,36.394c6.662,7.184,7.211,9.648,4.625,15.287
			c-2.572,5.594-13.145,13.38-26.041,19.727c-26.447,13.098-60.201,23.137-95.543,36.424c-14.415,6.315-37.131,12.286-63.604,34.446
			c-6.364,5.723-12.889,13.902-15.899,24.15c-3.031,10.483-1.769,20.955,2.233,30.395c8.497,19.218,25.21,31.495,41.379,41.694
			c32.9,20.197,71.368,33.465,105.374,49.793c8.238,4.015,16.182,8.494,21.076,12.532c2.756,1.84,3.172,2.987,3.271,3.8
			c0,0.71-9.551,3.327-18.26,5.315c-9.121,2.289-19.1,4.163-29.195,6.012c-20.267,3.756-41.178,7.119-61.978,13.593
			c-10.344,3.293-20.978,7.494-30.635,14.621c-9.927,6.693-16.861,19.118-16.354,29.934c1.271,21.053,14.932,35.099,26.678,46.313
			c12.411,11.145,25.419,19.749,37.66,27.111C419.364,977.486,455.883,988.014,457.239,985.793z"/>
		<ellipse fill="#FFFFFF" cx="468.367" cy="241.238" rx="10.581" ry="4.899"/>
	</g>
</g>
<path fill="#231F20" d="M397.934,1055.439c0,0,2.803-0.056,8.233-0.165c1.402-0.006,2.786-0.103,4.352-0.191
	c1.564-0.087,3.279-0.183,5.142-0.286c1.854-0.087,3.943-0.338,6.135-0.519c2.203-0.197,4.556-0.389,7.039-0.738
	c9.953-1.162,22.188-3.188,36.242-6.967c1.754-0.479,3.541-0.966,5.361-1.461c1.814-0.517,3.641-1.116,5.51-1.684
	c3.751-1.096,7.553-2.483,11.501-3.835c1.975-0.675,3.938-1.486,5.952-2.243c2.009-0.775,4.054-1.544,6.086-2.44
	c2.042-0.865,4.114-1.744,6.216-2.636c2.072-0.959,4.175-1.931,6.305-2.917c8.472-4.045,17.274-8.597,26.181-13.965
	c8.898-5.377,17.969-11.422,27.09-18.202c18.239-13.56,36.598-30.181,54.201-49.837c35.255-39.254,67.361-90.738,91.277-151.519
	c23.954-60.737,40.063-130.562,45.069-205.406c1.292-18.704,1.826-37.728,1.679-56.972c-0.02-2.465-0.04-4.934-0.06-7.407
	c-0.061-2.379-0.12-4.762-0.181-7.148c-0.08-4.747-0.317-9.615-0.527-14.479c-0.439-9.728-1.131-19.495-1.904-29.309
	c-3.433-39.212-9.833-79.057-20.203-118.599c-10.231-39.562-24.384-78.836-42.877-116.563
	c-18.524-37.678-41.669-73.736-69.896-105.815c-7.097-7.974-14.478-15.714-22.165-23.159c-7.691-7.443-15.771-14.483-24.095-21.231
	c-8.323-6.75-16.992-13.087-25.967-18.957c-8.963-5.886-18.211-11.35-27.739-16.283c-9.516-4.959-19.337-9.314-29.346-13.172
	c-10.026-3.814-20.264-7.072-30.658-9.726c-10.396-2.653-20.969-4.589-31.614-5.915l-3.992-0.505l-4.007-0.369
	c-2.673-0.229-5.341-0.534-8.023-0.637c-2.68-0.126-5.356-0.346-8.04-0.4l-7.843-0.166l-8.409,0.154
	c-1.442,0.004-2.699,0.106-4.021,0.172l-3.93,0.213c-2.596,0.094-5.302,0.396-7.967,0.619l-4.008,0.361l-3.994,0.498
	c-10.651,1.306-21.23,3.223-31.637,5.854c-10.405,2.633-20.655,5.872-30.696,9.667c-10.024,3.837-19.863,8.173-29.398,13.115
	C264.76,59.184,255.49,64.63,246.503,70.5c-8.998,5.854-17.691,12.177-26.041,18.914c-8.35,6.734-16.458,13.763-24.177,21.196
	c-7.716,7.435-15.127,15.166-22.253,23.133c-28.344,32.051-51.621,68.104-70.253,105.802
	c-18.61,37.743-32.855,77.061-43.161,116.675c-10.438,39.596-16.889,79.505-20.343,118.783c-1.627,19.654-2.58,39.156-2.691,58.439
	c-0.014,2.359-0.027,4.714-0.041,7.066c0.021,2.464,0.041,4.925,0.062,7.382l0.031,3.682l0.015,1.839l0.047,1.769
	c0.063,2.356,0.126,4.708,0.189,7.057c0.259,9.405,0.762,18.93,1.386,28.275c1.218,18.744,3.208,37.171,5.825,55.22
	c2.587,18.055,5.891,35.716,9.714,52.948c0.482,2.153,0.962,4.302,1.442,6.446c0.52,2.135,1.039,4.265,1.557,6.39
	c0.524,2.123,1.018,4.251,1.564,6.358c0.555,2.105,1.109,4.206,1.661,6.303c1.068,4.203,2.253,8.353,3.415,12.489
	c1.123,4.149,2.415,8.225,3.626,12.306c4.978,16.279,10.521,32.047,16.567,47.24c12.076,30.391,26.123,58.502,41.639,83.874
	c15.511,25.375,32.44,48.038,50.134,67.656c17.678,19.638,36.101,36.231,54.394,49.761c9.148,6.766,18.243,12.795,27.163,18.155
	c8.927,5.352,17.748,9.889,26.236,13.917c2.134,0.981,4.24,1.95,6.316,2.905c2.104,0.887,4.18,1.761,6.226,2.623
	c2.035,0.893,4.084,1.656,6.096,2.428c2.018,0.753,3.983,1.562,5.961,2.232c3.954,1.344,7.76,2.725,11.516,3.813
	c1.872,0.564,3.7,1.16,5.517,1.673c1.822,0.492,3.611,0.976,5.367,1.451c14.069,3.75,26.312,5.752,36.269,6.896
	c2.484,0.346,4.838,0.533,7.042,0.726c2.205,0.177,4.255,0.422,6.166,0.508c3.819,0.178,7.028,0.431,9.62,0.462
	c5.182,0.096,7.856,0.145,7.856,0.145L397.934,1055.439z M398.159,1080.941c0,0-2.932-0.05-8.612-0.146
	c-2.84-0.035-6.362-0.298-10.549-0.495c-2.095-0.096-4.344-0.354-6.762-0.547c-2.417-0.209-4.999-0.417-7.724-0.788
	c-10.92-1.256-24.344-3.434-39.777-7.403c-1.926-0.507-3.887-1.024-5.885-1.551c-1.991-0.548-3.995-1.181-6.046-1.785
	c-4.116-1.169-8.284-2.638-12.612-4.084c-8.575-3.098-17.666-6.497-26.942-10.809c-9.297-4.256-18.918-9.116-28.695-14.741
	c-9.766-5.64-19.713-11.992-29.707-19.122c-20.028-14.206-40.177-31.606-59.621-52.104c-19.445-20.493-38.188-44.088-55.402-70.579
	c-17.216-26.484-32.98-55.814-46.577-87.619c-6.77-15.913-13.015-32.432-18.673-49.496c-1.381-4.275-2.843-8.552-4.132-12.898
	c-1.323-4.338-2.69-8.688-3.901-13.1c-0.622-2.201-1.244-4.409-1.868-6.621c-0.615-2.214-1.176-4.447-1.768-6.678
	c-0.585-2.232-1.171-4.471-1.758-6.713c-0.545-2.252-1.092-4.509-1.64-6.771c-8.73-36.197-14.775-74.329-17.603-113.763
	c-0.675-9.884-1.212-19.74-1.507-29.859c-0.07-2.533-0.141-5.069-0.211-7.61l-0.052-1.904l-0.018-1.839l-0.036-3.682
	c-0.024-2.457-0.048-4.917-0.073-7.382l-0.004-1.101l0.01-0.948l0.021-1.897l0.042-3.798c0.243-20.269,1.206-40.79,3.184-61.451
	c1.967-20.661,4.86-41.467,8.742-62.3c3.814-20.846,8.767-41.69,14.688-62.446c11.864-41.497,28.083-82.571,49.067-121.815
	c20.963-39.222,46.826-76.631,78.023-109.86c15.648-16.55,32.521-32.135,50.826-46.086c18.215-14.053,37.914-26.361,58.658-36.753
	c10.374-5.199,21.094-9.754,32.018-13.775c10.92-4.035,22.083-7.469,33.422-10.247c11.347-2.75,22.869-4.813,34.47-6.232
	l4.351-0.534l4.367-0.391c2.921-0.242,5.792-0.555,8.801-0.668l4.469-0.231c1.479-0.07,3.02-0.174,4.382-0.175l8.409-0.142
	l8.976,0.13c2.922,0.048,5.84,0.265,8.76,0.391c2.923,0.104,5.831,0.414,8.745,0.65l4.368,0.383l4.354,0.526
	c11.605,1.4,23.135,3.444,34.491,6.172c11.35,2.756,22.525,6.171,33.461,10.188c10.938,4.001,21.677,8.537,32.07,13.718
	c20.782,10.357,40.529,22.633,58.797,36.66c18.356,13.924,35.288,29.489,50.996,46.024c31.314,33.202,57.31,70.604,78.38,109.847
	c21.101,39.26,37.414,80.377,49.352,121.927c5.952,20.783,10.939,41.656,14.774,62.534c3.907,20.864,6.815,41.702,8.794,62.396
	c0.435,5.178,0.953,10.337,1.311,15.492c0.316,5.158,0.74,10.296,0.942,15.43c0.245,5.132,0.516,10.229,0.631,15.43
	c0.075,2.586,0.15,5.168,0.226,7.747c0.031,2.486,0.063,4.969,0.095,7.448c0.207,20.309-0.458,40.37-1.839,60.121
	c-5.688,79.022-24.325,152.686-51.645,216.333c-13.692,31.824-29.532,61.172-46.833,87.658
	c-17.301,26.491-36.124,50.077-55.643,70.552c-19.519,20.479-39.731,37.853-59.814,52.028
	c-10.021,7.115-19.991,13.453-29.779,19.075c-9.798,5.609-19.437,10.454-28.75,14.693c-9.293,4.296-18.397,7.677-26.982,10.761
	c-4.334,1.438-8.507,2.9-12.627,4.063c-2.054,0.601-4.06,1.229-6.053,1.774c-1.999,0.522-3.963,1.036-5.891,1.54
	c-15.448,3.94-28.879,6.096-39.804,7.333c-2.727,0.366-5.309,0.569-7.727,0.774c-2.431,0.189-4.641,0.44-6.792,0.537
	c-2.14,0.108-4.11,0.208-5.909,0.298c-1.797,0.089-3.452,0.184-4.768,0.181c-5.431,0.083-8.234,0.126-8.234,0.126L398.159,1080.941z
	"/>
</svg>
